<?xml version="1.0" encoding="UTF-8"?>
<svg id="Layer_2" data-name="Layer 2" xmlns="http://www.w3.org/2000/svg" viewBox="0 0 3344.13 636.97">
  <g id="Layer_1-2" data-name="Layer 1">
    <g>
      <path d="M3131.01,244.68c-3.59,3.59-5.83,8.55-5.83,14.07,0,11,8.93,19.9,19.9,19.9h199.06v39.83c-.03,173.06-138.03,313.88-310.02,318.33v.14h-326.91v-238.85h199.02c5.48,0,10.48-2.24,14.1-5.83,3.59-3.62,5.83-8.59,5.83-14.07,0-11-8.93-19.93-19.93-19.93h-199.02v-39.79c0-87.96,35.65-167.54,93.31-225.19C2858.12,35.65,2937.74,0,3025.67,0h318.47v238.85h-199.06c-5.48,0-10.45,2.24-14.07,5.83Z"/>
      <path d="M995.44,0c-175.89,0-318.46,142.61-318.46,318.5s142.58,318.47,318.46,318.47,318.46-142.61,318.46-318.47S1171.33,0,995.44,0ZM1015.24,338.36c0,5.48-2.24,10.48-5.83,14.07-3.62,3.62-8.58,5.83-14.07,5.83-11,0-19.93-8.9-19.93-19.9v-39.79c0-11,8.93-19.9,19.93-19.9s19.9,8.9,19.9,19.9v39.79Z"/>
      <path d="M1990.66,318.47V0h-636.94v318.47h119.43s0,0,0,0c0,175.88,142.58,318.46,318.46,318.46h0s199.05,0,199.05,0v-278.67h-198.32c-.92,0-1.83-.03-2.73-.09-25.16-1.73-23.19-39.7,2.03-39.7h199.02Z"/>
      <path d="M636.94,318.47V0H0v318.47h119.43s0,0,0,0c0,175.88,142.58,318.46,318.46,318.46h0s199.05,0,199.05,0v-278.67h-198.32c-.92,0-1.83-.03-2.73-.09-25.16-1.73-23.19-39.7,2.03-39.7h199.02Z"/>
      <path d="M2664.87,278.64h-296.05v59.72c0,5.48-2.21,10.48-5.83,14.07-3.59,3.62-8.58,5.83-14.07,5.83-11,0-19.9-8.9-19.9-19.9v-79.62c0-11,8.86-19.86,19.86-19.9h308.43C2621.98,101.51,2497.29,0,2348.89,0c-175.89,0-318.43,142.61-318.43,318.5s142.54,318.47,318.43,318.47,318.46-142.61,318.46-318.47c0-13.48-.83-26.79-2.48-39.86Z"/>
    </g>
  </g>
</svg>